<svg width="780" height="400" viewBox="0 0 780 400" fill="none" xmlns="http://www.w3.org/2000/svg">
<rect width="780" height="400" fill="#091E42"/>
<rect width="780" height="400" fill="url(#paint0_radial_4322_8747)"/>
<rect width="780" height="400" fill="url(#paint1_radial_4322_8747)"/>
<rect width="780" height="400" fill="url(#paint2_radial_4322_8747)"/>
<g filter="url(#filter0_d_4322_8747)">
<path d="M611.343 102H684.075C686.391 102 688.268 103.497 688.268 105.343V235.182C688.268 237.028 686.391 238.525 684.075 238.525H611.343C609.028 238.525 607.15 237.028 607.15 235.182V105.343C607.15 103.497 609.028 102 611.343 102Z" fill="url(#paint3_linear_4322_8747)"/>
<path d="M620.548 124.733H675.159C678.73 124.733 681.625 127.628 681.625 131.199V211.467C681.625 215.038 678.73 217.933 675.159 217.933H620.548C616.976 217.933 614.081 215.038 614.081 211.467V131.199C614.081 127.628 616.976 124.733 620.548 124.733Z" fill="#E7EEFF" fill-opacity="0.17"/>
<path d="M621.353 136.099H648.237C649.894 136.099 651.238 137.442 651.238 139.099C651.238 140.757 649.894 142.1 648.237 142.1H621.353C619.696 142.1 618.352 140.757 618.352 139.099C618.352 137.442 619.696 136.099 621.353 136.099Z" fill="white" fill-opacity="0.2"/>
<path d="M672.733 136.099H673.59C674.968 136.099 676.085 137.216 676.085 138.593V139.605C676.085 140.983 674.968 142.1 673.59 142.1H672.733C671.355 142.1 670.239 140.983 670.239 139.605V138.593C670.239 137.216 671.355 136.099 672.733 136.099Z" fill="#3D7FFC"/>
<path d="M664.694 136.099H665.551C666.929 136.099 668.045 137.216 668.045 138.593V139.605C668.045 140.983 666.929 142.1 665.551 142.1H664.694C663.316 142.1 662.199 140.983 662.199 139.605V138.593C662.199 137.216 663.316 136.099 664.694 136.099Z" fill="#15C1E6"/>
<path d="M656.655 136.099H657.513C658.891 136.099 660.007 137.216 660.007 138.593V139.605C660.007 140.983 658.891 142.1 657.513 142.1H656.655C655.278 142.1 654.161 140.983 654.161 139.605V138.593C654.161 137.216 655.278 136.099 656.655 136.099Z" fill="#9D97F4"/>
<path d="M621.353 152.011H648.237C649.894 152.011 651.238 153.354 651.238 155.011C651.238 156.669 649.894 158.012 648.237 158.012H621.353C619.696 158.012 618.352 156.669 618.352 155.011C618.352 153.354 619.696 152.011 621.353 152.011Z" fill="white" fill-opacity="0.2"/>
<path d="M672.733 152.011H673.59C674.968 152.011 676.085 153.128 676.085 154.505V155.517C676.085 156.895 674.968 158.012 673.59 158.012H672.733C671.355 158.012 670.239 156.895 670.239 155.517V154.505C670.239 153.128 671.355 152.011 672.733 152.011Z" fill="#3D7FFC"/>
<path d="M664.694 152.011H665.551C666.929 152.011 668.045 153.128 668.045 154.505V155.517C668.045 156.895 666.929 158.012 665.551 158.012H664.694C663.316 158.012 662.199 156.895 662.199 155.517V154.505C662.199 153.128 663.316 152.011 664.694 152.011Z" fill="#3D7FFC"/>
<path d="M656.655 152.011H657.513C658.891 152.011 660.007 153.128 660.007 154.505V155.517C660.007 156.895 658.891 158.012 657.513 158.012H656.655C655.278 158.012 654.161 156.895 654.161 155.517V154.505C654.161 153.128 655.278 152.011 656.655 152.011Z" fill="#15C1E6"/>
<path d="M621.353 167.923H648.237C649.894 167.923 651.238 169.266 651.238 170.924C651.238 172.581 649.894 173.924 648.237 173.924H621.353C619.696 173.924 618.352 172.581 618.352 170.924C618.352 169.266 619.696 167.923 621.353 167.923Z" fill="white" fill-opacity="0.2"/>
<path d="M672.733 167.923H673.59C674.968 167.923 676.085 169.04 676.085 170.417V171.43C676.085 172.807 674.968 173.924 673.59 173.924H672.733C671.355 173.924 670.239 172.807 670.239 171.43V170.417C670.239 169.04 671.355 167.923 672.733 167.923Z" fill="#15C1E6"/>
<path d="M664.694 167.923H665.551C666.929 167.923 668.045 169.04 668.045 170.417V171.43C668.045 172.807 666.929 173.924 665.551 173.924H664.694C663.316 173.924 662.199 172.807 662.199 171.43V170.417C662.199 169.04 663.316 167.923 664.694 167.923Z" fill="#9D97F4"/>
<path d="M656.655 167.923H657.513C658.891 167.923 660.007 169.04 660.007 170.417V171.43C660.007 172.807 658.891 173.924 657.513 173.924H656.655C655.278 173.924 654.161 172.807 654.161 171.43V170.417C654.161 169.04 655.278 167.923 656.655 167.923Z" fill="#3D7FFC"/>
<path d="M621.353 183.835H648.237C649.894 183.835 651.238 185.179 651.238 186.836C651.238 188.493 649.894 189.836 648.237 189.836H621.353C619.696 189.836 618.352 188.493 618.352 186.836C618.352 185.179 619.696 183.835 621.353 183.835Z" fill="white" fill-opacity="0.2"/>
<path d="M672.733 183.835H673.59C674.968 183.835 676.085 184.952 676.085 186.33V187.342C676.085 188.719 674.968 189.836 673.59 189.836H672.733C671.355 189.836 670.239 188.719 670.239 187.342V186.33C670.239 184.952 671.355 183.835 672.733 183.835Z" fill="#3D7FFC"/>
<path d="M664.694 183.835H665.551C666.929 183.835 668.045 184.952 668.045 186.33V187.342C668.045 188.719 666.929 189.836 665.551 189.836H664.694C663.316 189.836 662.199 188.719 662.199 187.342V186.33C662.199 184.952 663.316 183.835 664.694 183.835Z" fill="#15C1E6"/>
<path d="M656.655 183.835H657.513C658.891 183.835 660.007 184.952 660.007 186.33V187.342C660.007 188.719 658.891 189.836 657.513 189.836H656.655C655.278 189.836 654.161 188.719 654.161 187.342V186.33C654.161 184.952 655.278 183.835 656.655 183.835Z" fill="#3D7FFC"/>
<path d="M621.353 199.746H648.237C649.894 199.746 651.238 201.089 651.238 202.746C651.238 204.404 649.894 205.747 648.237 205.747H621.353C619.696 205.747 618.352 204.404 618.352 202.746C618.352 201.089 619.696 199.746 621.353 199.746Z" fill="white" fill-opacity="0.2"/>
<path d="M672.733 199.746H673.59C674.968 199.746 676.085 200.863 676.085 202.24V203.252C676.085 204.63 674.968 205.747 673.59 205.747H672.733C671.355 205.747 670.239 204.63 670.239 203.252V202.24C670.239 200.863 671.355 199.746 672.733 199.746Z" fill="#3D7FFC"/>
<path d="M664.694 199.746H665.551C666.929 199.746 668.045 200.863 668.045 202.24V203.252C668.045 204.63 666.929 205.747 665.551 205.747H664.694C663.316 205.747 662.199 204.63 662.199 203.252V202.24C662.199 200.863 663.316 199.746 664.694 199.746Z" fill="#15C1E6"/>
<path d="M656.655 199.746H657.513C658.891 199.746 660.007 200.863 660.007 202.24V203.252C660.007 204.63 658.891 205.747 657.513 205.747H656.655C655.278 205.747 654.161 204.63 654.161 203.252V202.24C654.161 200.863 655.278 199.746 656.655 199.746Z" fill="#3D7FFC"/>
<path d="M662.891 111.499C662.582 110.156 663.393 108.811 664.703 108.494C666.014 108.177 667.327 109.008 667.636 110.351C667.945 111.694 667.134 113.04 665.823 113.357C664.513 113.674 663.2 112.842 662.891 111.499Z" fill="#0BE597"/>
<path d="M670.201 111.329C669.985 109.967 670.888 108.684 672.217 108.463C673.545 108.242 674.798 109.167 675.013 110.529C675.229 111.891 674.327 113.174 672.998 113.395C671.669 113.616 670.417 112.691 670.201 111.329Z" fill="#0BE597"/>
<path d="M678.234 112.693C677.282 111.717 677.282 110.135 678.234 109.16C679.186 108.184 680.73 108.184 681.682 109.16C682.634 110.135 682.634 111.717 681.682 112.693C680.73 113.669 679.186 113.669 678.234 112.693Z" fill="#0BE597"/>
<path d="M558.193 119.049H630.925C633.241 119.049 635.118 120.546 635.118 122.392V252.231C635.118 254.077 633.241 255.574 630.925 255.574H558.193C555.877 255.574 554 254.077 554 252.231V122.392C554 120.546 555.877 119.049 558.193 119.049Z" fill="url(#paint4_linear_4322_8747)"/>
<path d="M567.397 141.781H622.009C625.58 141.781 628.475 144.676 628.475 148.247V228.515C628.475 232.086 625.58 234.982 622.009 234.982H567.397C563.826 234.982 560.931 232.086 560.931 228.515V148.247C560.931 144.676 563.826 141.781 567.397 141.781Z" fill="#E7EEFF" fill-opacity="0.17"/>
<path d="M568.204 153.147H595.088C596.745 153.147 598.089 154.49 598.089 156.148C598.089 157.805 596.745 159.148 595.088 159.148H568.204C566.547 159.148 565.203 157.805 565.203 156.148C565.203 154.49 566.547 153.147 568.204 153.147Z" fill="white" fill-opacity="0.2"/>
<path d="M619.584 153.147H620.442C621.819 153.147 622.936 154.264 622.936 155.642V156.654C622.936 158.031 621.819 159.148 620.442 159.148H619.584C618.207 159.148 617.09 158.031 617.09 156.654V155.642C617.09 154.264 618.207 153.147 619.584 153.147Z" fill="#3D7FFC"/>
<path d="M611.545 153.147H612.402C613.78 153.147 614.897 154.264 614.897 155.642V156.654C614.897 158.031 613.78 159.148 612.402 159.148H611.545C610.167 159.148 609.051 158.031 609.051 156.654V155.642C609.051 154.264 610.167 153.147 611.545 153.147Z" fill="#15C1E6"/>
<path d="M603.507 153.147H604.364C605.742 153.147 606.859 154.264 606.859 155.642V156.654C606.859 158.031 605.742 159.148 604.364 159.148H603.507C602.129 159.148 601.013 158.031 601.013 156.654V155.642C601.013 154.264 602.129 153.147 603.507 153.147Z" fill="#3D7FFC"/>
<path d="M568.204 169.06H595.088C596.745 169.06 598.089 170.403 598.089 172.06C598.089 173.718 596.745 175.061 595.088 175.061H568.204C566.547 175.061 565.203 173.718 565.203 172.06C565.203 170.403 566.547 169.06 568.204 169.06Z" fill="white" fill-opacity="0.2"/>
<path d="M619.584 169.06H620.442C621.819 169.06 622.936 170.177 622.936 171.554V172.566C622.936 173.944 621.819 175.061 620.442 175.061H619.584C618.207 175.061 617.09 173.944 617.09 172.566V171.554C617.09 170.177 618.207 169.06 619.584 169.06Z" fill="#9D97F4"/>
<path d="M611.545 169.06H612.402C613.78 169.06 614.897 170.177 614.897 171.554V172.566C614.897 173.944 613.78 175.061 612.402 175.061H611.545C610.167 175.061 609.051 173.944 609.051 172.566V171.554C609.051 170.177 610.167 169.06 611.545 169.06Z" fill="#3D7FFC"/>
<path d="M603.507 169.06H604.364C605.742 169.06 606.859 170.177 606.859 171.554V172.566C606.859 173.944 605.742 175.061 604.364 175.061H603.507C602.129 175.061 601.013 173.944 601.013 172.566V171.554C601.013 170.177 602.129 169.06 603.507 169.06Z" fill="#15C1E6"/>
<path d="M568.204 184.971H595.088C596.745 184.971 598.089 186.314 598.089 187.971C598.089 189.628 596.745 190.972 595.088 190.972H568.204C566.547 190.972 565.203 189.628 565.203 187.971C565.203 186.314 566.547 184.971 568.204 184.971Z" fill="white" fill-opacity="0.2"/>
<path d="M619.584 184.971H620.442C621.819 184.971 622.936 186.088 622.936 187.465V188.477C622.936 189.855 621.819 190.972 620.442 190.972H619.584C618.207 190.972 617.09 189.855 617.09 188.477V187.465C617.09 186.088 618.207 184.971 619.584 184.971Z" fill="#15C1E6"/>
<path d="M611.545 184.971H612.402C613.78 184.971 614.897 186.088 614.897 187.465V188.477C614.897 189.855 613.78 190.972 612.402 190.972H611.545C610.167 190.972 609.051 189.855 609.051 188.477V187.465C609.051 186.088 610.167 184.971 611.545 184.971Z" fill="#3D7FFC"/>
<path d="M603.507 184.971H604.364C605.742 184.971 606.859 186.088 606.859 187.465V188.477C606.859 189.855 605.742 190.972 604.364 190.972H603.507C602.129 190.972 601.013 189.855 601.013 188.477V187.465C601.013 186.088 602.129 184.971 603.507 184.971Z" fill="#3D7FFC"/>
<path d="M568.204 200.882H595.088C596.745 200.882 598.089 202.226 598.089 203.883C598.089 205.54 596.745 206.884 595.088 206.884H568.204C566.547 206.884 565.203 205.54 565.203 203.883C565.203 202.226 566.547 200.882 568.204 200.882Z" fill="white" fill-opacity="0.2"/>
<path d="M619.584 200.883H620.442C621.819 200.883 622.936 201.999 622.936 203.377V204.389C622.936 205.767 621.819 206.884 620.442 206.884H619.584C618.207 206.884 617.09 205.767 617.09 204.389V203.377C617.09 201.999 618.207 200.883 619.584 200.883Z" fill="#3D7FFC"/>
<path d="M611.545 200.882H612.402C613.78 200.882 614.897 201.999 614.897 203.377V204.389C614.897 205.767 613.78 206.884 612.402 206.884H611.545C610.167 206.884 609.051 205.767 609.051 204.389V203.377C609.051 201.999 610.167 200.882 611.545 200.882Z" fill="#15C1E6"/>
<path d="M603.507 200.882H604.364C605.742 200.882 606.859 201.999 606.859 203.377V204.389C606.859 205.767 605.742 206.884 604.364 206.884H603.507C602.129 206.884 601.013 205.767 601.013 204.389V203.377C601.013 201.999 602.129 200.882 603.507 200.882Z" fill="#3D7FFC"/>
<path d="M568.204 216.796H595.088C596.745 216.796 598.089 218.139 598.089 219.796C598.089 221.454 596.745 222.797 595.088 222.797H568.204C566.547 222.797 565.203 221.454 565.203 219.796C565.203 218.139 566.547 216.796 568.204 216.796Z" fill="white" fill-opacity="0.2"/>
<path d="M619.584 216.796H620.442C621.819 216.796 622.936 217.913 622.936 219.29V220.303C622.936 221.68 621.819 222.797 620.442 222.797H619.584C618.207 222.797 617.09 221.68 617.09 220.303V219.29C617.09 217.913 618.207 216.796 619.584 216.796Z" fill="#3D7FFC"/>
<path d="M611.545 216.796H612.402C613.78 216.796 614.897 217.913 614.897 219.29V220.303C614.897 221.68 613.78 222.797 612.402 222.797H611.545C610.167 222.797 609.051 221.68 609.051 220.303V219.29C609.051 217.913 610.167 216.796 611.545 216.796Z" fill="#15C1E6"/>
<path d="M603.507 216.796H604.364C605.742 216.796 606.859 217.913 606.859 219.29V220.303C606.859 221.68 605.742 222.797 604.364 222.797H603.507C602.129 222.797 601.013 221.68 601.013 220.303V219.29C601.013 217.913 602.129 216.796 603.507 216.796Z" fill="#9D97F4"/>
<path d="M609.741 128.548C609.432 127.205 610.243 125.86 611.554 125.543C612.864 125.226 614.177 126.058 614.486 127.401C614.795 128.743 613.984 130.089 612.673 130.406C611.363 130.723 610.05 129.891 609.741 128.548Z" fill="#0BE597"/>
<path d="M617.051 128.375C616.835 127.013 617.737 125.73 619.066 125.509C620.395 125.288 621.647 126.212 621.863 127.574C622.079 128.937 621.176 130.22 619.847 130.441C618.518 130.662 617.266 129.737 617.051 128.375Z" fill="#0BE597"/>
<path d="M625.084 129.741C624.132 128.766 624.132 127.184 625.084 126.208C626.036 125.232 627.579 125.232 628.531 126.208C629.483 127.184 629.483 128.766 628.531 129.741C627.579 130.717 626.036 130.717 625.084 129.741Z" fill="#0BE597"/>
</g>
<g filter="url(#filter1_dd_4322_8747)">
<path d="M570 301.408C570 296.212 574.212 292 579.408 292H672.592C677.788 292 682 296.212 682 301.408V334.592C682 339.788 677.788 344 672.592 344H579.408C574.212 344 570 339.788 570 334.592V301.408Z" fill="url(#paint5_linear_4322_8747)" shape-rendering="crispEdges"/>
<path d="M672.593 291.332C678.157 291.332 682.668 295.843 682.668 301.407V334.593C682.668 340.157 678.157 344.668 672.593 344.668H579.407C573.843 344.668 569.332 340.157 569.332 334.593V301.407C569.332 295.843 573.843 291.332 579.407 291.332H672.593Z" stroke="url(#paint6_linear_4322_8747)" stroke-width="1.33659" shape-rendering="crispEdges"/>
<path d="M599.407 315.856C601.735 316.816 602.647 318.112 602.647 320.176C602.647 323.248 600.391 325.288 596.887 325.288C594.055 325.288 592.111 323.968 591.031 322.72L592.519 320.464C593.815 321.88 595.375 322.648 596.935 322.648C598.471 322.648 599.527 321.904 599.527 320.464C599.527 319.168 598.663 318.736 597.247 318.16L594.655 317.128C592.855 316.408 591.655 315.136 591.655 313.12C591.655 310.24 593.911 308.248 597.391 308.248C599.743 308.248 601.447 309.232 602.431 310.24L600.943 312.472C599.887 311.512 598.615 310.816 597.199 310.816C595.831 310.816 594.751 311.488 594.751 312.712C594.751 313.912 595.783 314.368 596.647 314.728L599.407 315.856ZM607.662 320.176C607.95 322.024 609.366 322.912 611.118 322.912C612.678 322.912 614.07 322.216 614.622 321.736L615.822 323.392C615.174 324.064 613.422 325.264 610.59 325.264C607.086 325.264 604.494 323.128 604.494 319.384C604.494 315.664 607.206 313.168 610.518 313.168C614.094 313.168 616.254 315.52 616.254 318.616C616.254 319.216 616.206 320.176 616.206 320.176H607.662ZM610.494 315.448C608.67 315.448 607.71 316.72 607.614 318.184H613.182C613.134 316.912 612.654 315.448 610.494 315.448ZM618.774 313.384H621.822L621.774 315.256H621.846C622.302 314.008 623.454 313.168 624.702 313.168C625.494 313.168 625.926 313.384 625.926 313.384L625.71 316.048H625.566C625.23 315.952 624.702 315.904 624.294 315.904C623.382 315.904 622.686 316.288 622.254 317.032C621.966 317.608 621.822 318.4 621.822 319.288V325H618.774V313.384ZM626.51 313.384H629.702L632.846 321.76L635.99 313.384H639.062L634.286 325H631.286L626.51 313.384ZM643.298 320.176C643.586 322.024 645.002 322.912 646.754 322.912C648.314 322.912 649.706 322.216 650.258 321.736L651.458 323.392C650.81 324.064 649.058 325.264 646.226 325.264C642.722 325.264 640.13 323.128 640.13 319.384C640.13 315.664 642.842 313.168 646.154 313.168C649.73 313.168 651.89 315.52 651.89 318.616C651.89 319.216 651.842 320.176 651.842 320.176H643.298ZM646.13 315.448C644.306 315.448 643.346 316.72 643.25 318.184H648.818C648.77 316.912 648.29 315.448 646.13 315.448ZM654.409 313.384H657.457L657.409 315.256H657.481C657.937 314.008 659.089 313.168 660.337 313.168C661.129 313.168 661.561 313.384 661.561 313.384L661.345 316.048H661.201C660.865 315.952 660.337 315.904 659.929 315.904C659.017 315.904 658.321 316.288 657.889 317.032C657.601 317.608 657.457 318.4 657.457 319.288V325H654.409V313.384Z" fill="white"/>
</g>
<path d="M356.621 86.6809H356.44L339.728 134.272H331.463L315.115 86.6809H314.842L311.482 134H300.129L305.306 71.3318H320.837L336.004 116.289H336.186L351.535 71.3318H366.521L371.88 134H360.254L356.621 86.6809ZM435.105 126.189C431.563 130.004 424.752 135.09 412.4 135.09C394.053 135.09 379.885 122.647 379.885 102.757C379.885 82.8663 394.235 70.4235 412.4 70.4235C424.661 70.4235 431.745 75.6005 434.288 78.1435L430.11 87.7708C428.294 85.4094 421.209 80.5958 412.309 80.5958C401.41 80.5958 392.055 87.7708 392.055 102.575C392.055 116.108 400.502 124.918 413.035 124.918C421.391 124.918 427.204 121.285 430.928 117.288L435.105 126.189ZM444.663 71.3318H464.825C471.092 71.3318 476.542 72.6033 480.538 75.9638C484.625 79.3242 487.077 83.7746 487.077 90.1322C487.077 96.4899 484.625 101.031 480.538 104.392C476.542 107.752 471.092 109.296 464.825 109.296H456.56V134H444.663V71.3318ZM463.372 100.032C467.005 100.032 469.457 99.1238 471.455 97.6706C473.454 96.2174 474.907 93.6743 474.907 90.1322C474.907 86.6809 473.181 84.1379 471.183 82.6847C469.185 81.2315 466.733 80.5958 463.1 80.5958H456.47V100.032H463.372Z" fill="white"/>
<g filter="url(#filter2_dd_4322_8747)">
<path d="M108.5 301.408C108.5 296.212 112.712 292 117.908 292H204.092C209.288 292 213.5 296.212 213.5 301.408V334.592C213.5 339.788 209.288 344 204.092 344H117.908C112.712 344 108.5 339.788 108.5 334.592V301.408Z" fill="url(#paint7_linear_4322_8747)" shape-rendering="crispEdges"/>
<path d="M204.093 291.332C209.657 291.332 214.168 295.843 214.168 301.407V334.593C214.168 340.157 209.657 344.668 204.093 344.668H117.907C112.343 344.668 107.832 340.157 107.832 334.593V301.407C107.832 295.843 112.343 291.332 117.907 291.332H204.093Z" stroke="url(#paint8_linear_4322_8747)" stroke-width="1.33659" shape-rendering="crispEdges"/>
<path d="M143.871 322.936C142.935 323.944 141.135 325.288 137.871 325.288C133.023 325.288 129.279 322 129.279 316.744C129.279 311.488 133.071 308.2 137.871 308.2C141.111 308.2 142.983 309.568 143.655 310.24L142.551 312.784C142.071 312.16 140.199 310.888 137.847 310.888C134.967 310.888 132.495 312.784 132.495 316.696C132.495 320.272 134.727 322.6 138.039 322.6C140.247 322.6 141.783 321.64 142.767 320.584L143.871 322.936ZM146.3 308.44H149.348V325H146.3V308.44ZM154.41 311.536C153.33 311.536 152.562 310.84 152.562 309.832C152.562 308.848 153.33 308.128 154.41 308.128C155.49 308.128 156.258 308.848 156.258 309.832C156.258 310.84 155.49 311.536 154.41 311.536ZM152.874 313.384H155.946V325H152.874V313.384ZM161.751 320.176C162.039 322.024 163.455 322.912 165.207 322.912C166.767 322.912 168.159 322.216 168.711 321.736L169.911 323.392C169.263 324.064 167.511 325.264 164.679 325.264C161.175 325.264 158.583 323.128 158.583 319.384C158.583 315.664 161.295 313.168 164.607 313.168C168.183 313.168 170.343 315.52 170.343 318.616C170.343 319.216 170.295 320.176 170.295 320.176H161.751ZM164.583 315.448C162.759 315.448 161.799 316.72 161.703 318.184H167.271C167.223 316.912 166.743 315.448 164.583 315.448ZM180.567 318.784C180.567 317.056 180.255 315.688 178.479 315.688C176.583 315.688 175.935 317.272 175.935 319.216V325H172.863V313.384H175.935L175.911 315.136H175.983C176.607 313.912 177.783 313.168 179.463 313.168C182.799 313.168 183.639 315.328 183.639 318.112V325H180.567V318.784ZM190.465 320.488C190.465 322.264 190.777 322.696 191.857 322.696C192.481 322.696 192.961 322.504 192.961 322.504L193.129 324.88C192.985 324.928 192.073 325.264 190.777 325.264C188.401 325.264 187.417 324.184 187.417 321.16V315.784H185.689V313.408H187.417V310.096H190.465V313.408H193.153V315.784H190.465V320.488Z" fill="white"/>
</g>
<path d="M516.206 179.293C516.596 179.683 516.596 180.317 516.206 180.707L509.842 187.071C509.451 187.462 508.818 187.462 508.427 187.071C508.037 186.681 508.037 186.047 508.427 185.657L514.084 180L508.427 174.343C508.037 173.953 508.037 173.32 508.427 172.929C508.818 172.538 509.451 172.538 509.842 172.929L516.206 179.293ZM515.499 181L264 181L264 179L515.499 179L515.499 181Z" fill="url(#paint9_linear_4322_8747)"/>
<path d="M263.293 214.707C262.902 214.317 262.902 213.683 263.293 213.293L269.657 206.929C270.047 206.538 270.681 206.538 271.071 206.929C271.462 207.319 271.462 207.953 271.071 208.343L265.414 214L271.071 219.657C271.462 220.047 271.462 220.681 271.071 221.071C270.681 221.462 270.047 221.462 269.657 221.071L263.293 214.707ZM264 213L515.499 213L515.499 215L264 215L264 213Z" fill="url(#paint10_linear_4322_8747)"/>
<g filter="url(#filter3_d_4322_8747)">
<rect x="91" y="116" width="140.203" height="140.203" rx="13.3269" fill="url(#paint11_linear_4322_8747)" shape-rendering="crispEdges"/>
<rect x="91.6663" y="116.666" width="138.87" height="138.87" rx="12.6606" stroke="url(#paint12_linear_4322_8747)" stroke-width="1.33269" shape-rendering="crispEdges"/>
<g clip-path="url(#clip0_4322_8747)">
<path d="M155.322 209.734C154.669 209.081 153.608 209.081 152.955 209.734L148.33 214.359C148.017 214.672 147.838 215.1 147.838 215.543C147.838 215.985 148.014 216.414 148.33 216.726L152.955 221.352C153.282 221.678 153.71 221.843 154.139 221.843C154.567 221.843 154.996 221.678 155.322 221.352C155.975 220.698 155.975 219.638 155.322 218.985L151.881 215.543L155.322 212.101C155.975 211.448 155.975 210.387 155.322 209.734Z" fill="white"/>
<path d="M168.77 209.734C168.116 209.081 167.056 209.081 166.403 209.734C165.749 210.387 165.749 211.448 166.403 212.101L169.844 215.543L166.403 218.985C165.749 219.638 165.749 220.698 166.403 221.352C166.729 221.678 167.158 221.843 167.586 221.843C168.014 221.843 168.443 221.678 168.77 221.352L173.395 216.726C173.707 216.414 173.886 215.985 173.886 215.543C173.886 215.1 173.711 214.672 173.395 214.359L168.77 209.734Z" fill="white"/>
<path d="M163.139 207.279C162.251 207.019 161.32 207.525 161.06 208.414L156.958 222.349C156.698 223.234 157.204 224.164 158.093 224.428C158.251 224.473 158.409 224.498 158.567 224.498C159.29 224.498 159.957 224.024 160.172 223.297L164.274 209.362C164.533 208.477 164.028 207.546 163.139 207.283V207.279Z" fill="white"/>
<path d="M176.018 228.095H140.014C139.105 228.095 138.367 227.357 138.367 226.448V202.321C138.367 201.411 139.105 200.674 140.014 200.674H182.185C183.094 200.674 183.832 201.411 183.832 202.321V226.448C183.832 227.354 183.094 228.095 182.185 228.095H176.014H176.018ZM129.047 222.363C128.527 221.643 128.393 220.748 128.674 219.908C130.069 215.743 131.361 211.958 132.52 208.656C133.022 207.224 133.914 205.864 135.02 204.604V223.505H131.277C130.381 223.505 129.566 223.09 129.047 222.367V222.363ZM151.951 192.937L156.931 197.327H144.906C146.813 196.319 148.165 195.75 148.207 195.733C148.218 195.729 148.229 195.722 148.243 195.715C148.274 195.701 148.302 195.687 148.33 195.673C148.355 195.659 148.38 195.648 148.401 195.634C148.422 195.62 148.446 195.61 148.467 195.592C148.495 195.575 148.524 195.554 148.552 195.533C148.562 195.525 148.573 195.518 148.58 195.511L151.951 192.934V192.937ZM161.177 188.242C162.982 188.242 164.713 187.919 166.315 187.329V191.947L161.1 196.544L156.474 192.467V187.48C157.953 187.971 159.533 188.242 161.173 188.242H161.177ZM149.609 173.327V164.962C149.609 162.229 152.531 161.408 154.982 161.2C155.101 161.19 155.217 161.169 155.326 161.134C155.347 161.134 155.365 161.141 155.386 161.144C163.431 162.107 168.043 158.377 169.883 156.396C170.901 157.264 172.741 159.873 172.741 167.385V173.046C172.741 173.092 172.741 173.137 172.748 173.183C172.745 173.229 172.741 173.274 172.741 173.32C172.741 179.697 167.554 184.885 161.173 184.885C154.792 184.885 149.605 179.697 149.605 173.32L149.609 173.327ZM143.884 169.397C143.884 168.006 144.92 166.855 146.262 166.665V172.126C144.92 171.94 143.884 170.788 143.884 169.394V169.397ZM150.381 147.55C152.109 145.362 154.701 144.108 157.493 144.108H165.001C168.057 144.108 170.251 144.821 171.516 146.222C172.949 147.81 172.755 149.875 172.755 149.882C172.696 150.384 172.864 150.89 173.219 151.251C173.574 151.613 174.072 151.796 174.575 151.75C174.589 151.75 176.099 151.648 177.075 152.533C177.714 153.116 178.041 154.071 178.041 155.378V163.627C177.412 163.409 176.738 163.287 176.036 163.287C175.986 163.287 175.937 163.287 175.888 163.294C174.856 153.59 170.202 152.733 169.616 152.667C168.994 152.593 168.38 152.884 168.028 153.401C167.877 153.622 164.257 158.83 155.786 157.819C155.551 157.79 155.319 157.815 155.105 157.878C154.975 157.857 154.841 157.85 154.704 157.861C152.559 158.043 150.778 158.567 149.416 159.388C149.247 158.152 148.994 156.832 148.66 155.434C147.997 152.649 148.625 149.773 150.385 147.543L150.381 147.55ZM176.088 172.157V167.392C176.088 167.136 176.088 166.886 176.081 166.64C177.581 166.665 178.792 167.894 178.792 169.397C178.792 170.9 177.584 172.126 176.088 172.154V172.157ZM170.251 192.937L173.619 195.515C173.619 195.515 173.64 195.529 173.651 195.536C173.676 195.554 173.704 195.575 173.732 195.592C173.756 195.606 173.777 195.62 173.802 195.634C173.827 195.648 173.848 195.659 173.872 195.673C173.9 195.687 173.932 195.701 173.96 195.715C173.971 195.722 173.985 195.726 173.995 195.733C174.016 195.743 175.379 196.312 177.3 197.327H165.272L170.251 192.937ZM189.679 208.653C190.838 211.954 192.13 215.74 193.525 219.905C193.806 220.748 193.672 221.643 193.152 222.363C192.633 223.087 191.818 223.501 190.922 223.501H187.179V204.618C188.373 205.977 189.216 207.329 189.679 208.653ZM198.487 228.095H186.898C187.035 227.698 187.126 227.283 187.161 226.848H190.922C192.907 226.848 194.712 225.924 195.867 224.319C197.022 222.714 197.324 220.72 196.696 218.844C195.298 214.665 193.999 210.865 192.836 207.547C189.904 199.192 177.324 193.52 175.484 192.73L171.193 189.446C170.747 189.102 170.171 189.025 169.661 189.19V185.587C172.977 183.283 175.319 179.673 175.93 175.504C175.965 175.504 176 175.511 176.036 175.511C179.403 175.511 182.143 172.772 182.143 169.404C182.143 168.34 181.869 167.336 181.384 166.461V155.385C181.384 153.095 180.692 151.304 179.323 150.061C178.259 149.095 177.022 148.681 176.032 148.512C175.87 147.262 175.389 145.552 174.048 144.038C172.123 141.868 169.079 140.765 164.998 140.765H157.489C153.665 140.765 150.118 142.482 147.751 145.478C145.352 148.516 144.495 152.431 145.398 156.221C146.058 158.984 146.364 161.358 146.318 163.304C143.101 163.473 140.534 166.145 140.534 169.404C140.534 172.663 143.154 175.388 146.42 175.508C147.059 179.856 149.581 183.599 153.128 185.882V189.52C152.527 188.997 151.642 188.965 151.01 189.45L146.715 192.734C144.871 193.524 132.295 199.195 129.363 207.55C128.197 210.869 126.901 214.669 125.5 218.848C124.871 220.723 125.173 222.718 126.329 224.323C127.487 225.931 129.289 226.851 131.273 226.851H135.034C135.07 227.283 135.157 227.701 135.298 228.098H123.716C122.792 228.098 122.041 228.846 122.041 229.773C122.041 230.7 122.789 231.448 123.716 231.448H198.49C199.414 231.448 200.166 230.7 200.166 229.773C200.166 228.846 199.418 228.098 198.49 228.098L198.487 228.095Z" fill="white"/>
</g>
</g>
<defs>
<filter id="filter0_d_4322_8747" x="541.794" y="93.0488" width="158.681" height="177.986" filterUnits="userSpaceOnUse" color-interpolation-filters="sRGB">
<feFlood flood-opacity="0" result="BackgroundImageFix"/>
<feColorMatrix in="SourceAlpha" type="matrix" values="0 0 0 0 0 0 0 0 0 0 0 0 0 0 0 0 0 0 127 0" result="hardAlpha"/>
<feOffset dy="3.25499"/>
<feGaussianBlur stdDeviation="6.10311"/>
<feComposite in2="hardAlpha" operator="out"/>
<feColorMatrix type="matrix" values="0 0 0 0 0 0 0 0 0 0 0 0 0 0 0 0 0 0 0.25 0"/>
<feBlend mode="normal" in2="BackgroundImageFix" result="effect1_dropShadow_4322_8747"/>
<feBlend mode="normal" in="SourceGraphic" in2="effect1_dropShadow_4322_8747" result="shape"/>
</filter>
<filter id="filter1_dd_4322_8747" x="562.314" y="284.314" width="134.629" height="74.6297" filterUnits="userSpaceOnUse" color-interpolation-filters="sRGB">
<feFlood flood-opacity="0" result="BackgroundImageFix"/>
<feColorMatrix in="SourceAlpha" type="matrix" values="0 0 0 0 0 0 0 0 0 0 0 0 0 0 0 0 0 0 127 0" result="hardAlpha"/>
<feOffset dx="4.53557" dy="4.53557"/>
<feGaussianBlur stdDeviation="4.53557"/>
<feColorMatrix type="matrix" values="0 0 0 0 0 0 0 0 0 0.296699 0 0 0 0 0.858629 0 0 0 0.08 0"/>
<feBlend mode="normal" in2="BackgroundImageFix" result="effect1_dropShadow_4322_8747"/>
<feColorMatrix in="SourceAlpha" type="matrix" values="0 0 0 0 0 0 0 0 0 0 0 0 0 0 0 0 0 0 127 0" result="hardAlpha"/>
<feOffset/>
<feGaussianBlur stdDeviation="3.1749"/>
<feComposite in2="hardAlpha" operator="out"/>
<feColorMatrix type="matrix" values="0 0 0 0 0.0354167 0 0 0 0 0.105426 0 0 0 0 0.2125 0 0 0 0.07 0"/>
<feBlend mode="normal" in2="effect1_dropShadow_4322_8747" result="effect2_dropShadow_4322_8747"/>
<feBlend mode="normal" in="SourceGraphic" in2="effect2_dropShadow_4322_8747" result="shape"/>
</filter>
<filter id="filter2_dd_4322_8747" x="100.814" y="284.314" width="127.629" height="74.6297" filterUnits="userSpaceOnUse" color-interpolation-filters="sRGB">
<feFlood flood-opacity="0" result="BackgroundImageFix"/>
<feColorMatrix in="SourceAlpha" type="matrix" values="0 0 0 0 0 0 0 0 0 0 0 0 0 0 0 0 0 0 127 0" result="hardAlpha"/>
<feOffset dx="4.53557" dy="4.53557"/>
<feGaussianBlur stdDeviation="4.53557"/>
<feColorMatrix type="matrix" values="0 0 0 0 0 0 0 0 0 0.296699 0 0 0 0 0.858629 0 0 0 0.08 0"/>
<feBlend mode="normal" in2="BackgroundImageFix" result="effect1_dropShadow_4322_8747"/>
<feColorMatrix in="SourceAlpha" type="matrix" values="0 0 0 0 0 0 0 0 0 0 0 0 0 0 0 0 0 0 127 0" result="hardAlpha"/>
<feOffset/>
<feGaussianBlur stdDeviation="3.1749"/>
<feComposite in2="hardAlpha" operator="out"/>
<feColorMatrix type="matrix" values="0 0 0 0 0.0354167 0 0 0 0 0.105426 0 0 0 0 0.2125 0 0 0 0.07 0"/>
<feBlend mode="normal" in2="effect1_dropShadow_4322_8747" result="effect2_dropShadow_4322_8747"/>
<feBlend mode="normal" in="SourceGraphic" in2="effect2_dropShadow_4322_8747" result="shape"/>
</filter>
<filter id="filter3_d_4322_8747" x="57.7653" y="88.5452" width="206.672" height="206.672" filterUnits="userSpaceOnUse" color-interpolation-filters="sRGB">
<feFlood flood-opacity="0" result="BackgroundImageFix"/>
<feColorMatrix in="SourceAlpha" type="matrix" values="0 0 0 0 0 0 0 0 0 0 0 0 0 0 0 0 0 0 127 0" result="hardAlpha"/>
<feMorphology radius="1.44499" operator="erode" in="SourceAlpha" result="effect1_dropShadow_4322_8747"/>
<feOffset dy="5.77995"/>
<feGaussianBlur stdDeviation="17.3399"/>
<feComposite in2="hardAlpha" operator="out"/>
<feColorMatrix type="matrix" values="0 0 0 0 0 0 0 0 0 0 0 0 0 0 0 0 0 0 0.2 0"/>
<feBlend mode="normal" in2="BackgroundImageFix" result="effect1_dropShadow_4322_8747"/>
<feBlend mode="normal" in="SourceGraphic" in2="effect1_dropShadow_4322_8747" result="shape"/>
</filter>
<radialGradient id="paint0_radial_4322_8747" cx="0" cy="0" r="1" gradientUnits="userSpaceOnUse" gradientTransform="translate(1.41713e-05 418.687) rotate(-57.2949) scale(531.782 588.419)">
<stop stop-color="#0941AB"/>
<stop offset="1" stop-color="#091B36" stop-opacity="0"/>
</radialGradient>
<radialGradient id="paint1_radial_4322_8747" cx="0" cy="0" r="1" gradientUnits="userSpaceOnUse" gradientTransform="translate(796.78 -9.72212) rotate(139.994) scale(490.426 444.702)">
<stop stop-color="#0941AB"/>
<stop offset="1" stop-color="#091B36" stop-opacity="0"/>
</radialGradient>
<radialGradient id="paint2_radial_4322_8747" cx="0" cy="0" r="1" gradientUnits="userSpaceOnUse" gradientTransform="translate(407.481 400) rotate(-90.1411) scale(400.001 528.853)">
<stop stop-color="#0941AB"/>
<stop offset="1" stop-color="#091B36" stop-opacity="0"/>
</radialGradient>
<linearGradient id="paint3_linear_4322_8747" x1="681.43" y1="102" x2="575.76" y2="132.968" gradientUnits="userSpaceOnUse">
<stop stop-color="#0C2966"/>
<stop offset="1" stop-color="#0045C9"/>
</linearGradient>
<linearGradient id="paint4_linear_4322_8747" x1="628.279" y1="119.049" x2="522.61" y2="150.018" gradientUnits="userSpaceOnUse">
<stop stop-color="#0C2966"/>
<stop offset="1" stop-color="#0045C9"/>
</linearGradient>
<linearGradient id="paint5_linear_4322_8747" x1="688.623" y1="269.937" x2="646.767" y2="376.064" gradientUnits="userSpaceOnUse">
<stop stop-color="#0A479C"/>
<stop offset="1" stop-color="#091B36"/>
</linearGradient>
<linearGradient id="paint6_linear_4322_8747" x1="582.505" y1="341.17" x2="631.818" y2="261.512" gradientUnits="userSpaceOnUse">
<stop stop-color="#3D7FFC"/>
<stop offset="1" stop-color="#15C1E6"/>
</linearGradient>
<linearGradient id="paint7_linear_4322_8747" x1="219.709" y1="269.937" x2="175.875" y2="374.131" gradientUnits="userSpaceOnUse">
<stop stop-color="#0A479C"/>
<stop offset="1" stop-color="#091B36"/>
</linearGradient>
<linearGradient id="paint8_linear_4322_8747" x1="120.224" y1="341.17" x2="170.889" y2="264.441" gradientUnits="userSpaceOnUse">
<stop stop-color="#3D7FFC"/>
<stop offset="1" stop-color="#15C1E6"/>
</linearGradient>
<linearGradient id="paint9_linear_4322_8747" x1="515.157" y1="179.677" x2="264" y2="175" gradientUnits="userSpaceOnUse">
<stop offset="0.535" stop-color="#9FC0FF"/>
<stop offset="1" stop-color="#1B4A99" stop-opacity="0.3"/>
</linearGradient>
<linearGradient id="paint10_linear_4322_8747" x1="264.341" y1="214.323" x2="515.499" y2="219" gradientUnits="userSpaceOnUse">
<stop offset="0.535" stop-color="#9FC0FF"/>
<stop offset="1" stop-color="#1B4A99" stop-opacity="0.3"/>
</linearGradient>
<linearGradient id="paint11_linear_4322_8747" x1="96.7218" y1="116" x2="238.078" y2="170.951" gradientUnits="userSpaceOnUse">
<stop stop-color="white" stop-opacity="0.09"/>
<stop offset="1" stop-color="white" stop-opacity="0.3"/>
</linearGradient>
<linearGradient id="paint12_linear_4322_8747" x1="110.059" y1="118.804" x2="245.215" y2="191.104" gradientUnits="userSpaceOnUse">
<stop stop-color="#76A5FF"/>
<stop offset="1" stop-color="white" stop-opacity="0.4"/>
</linearGradient>
<clipPath id="clip0_4322_8747">
<rect width="78.1215" height="90.68" fill="white" transform="translate(122.041 140.761)"/>
</clipPath>
</defs>
</svg>
